# Blender v2.76 (sub 0) OBJ File: 'elementalbasin.blend'
# www.blender.org
mtllib elementalbasin.mtl
o Basin
v 0.500000 -0.000414 -0.823027
v 0.500000 0.076938 -0.714815
v 0.779741 -0.000414 -0.661513
v 0.686030 0.076938 -0.607408
v 0.779741 -0.000414 -0.338487
v 0.686030 0.076938 -0.392592
v 0.500000 -0.000414 -0.176973
v 0.500000 0.076938 -0.285185
v 0.220259 -0.000414 -0.338487
v 0.313970 0.076938 -0.392592
v 0.220259 -0.000414 -0.661513
v 0.313970 0.076938 -0.607408
v 0.686030 0.133476 -0.607408
v 0.500000 0.133476 -0.714815
v 0.686030 0.133476 -0.392592
v 0.500000 0.133476 -0.285185
v 0.313970 0.133476 -0.392592
v 0.313970 0.133476 -0.607408
v 0.921727 0.259975 -0.743491
v 0.500000 0.259975 -0.986983
v 0.921727 0.259975 -0.256509
v 0.500000 0.259975 -0.013017
v 0.078273 0.259975 -0.256509
v 0.078273 0.259975 -0.743491
v 0.921727 0.365194 -0.743491
v 0.500000 0.365194 -0.986983
v 0.921727 0.365194 -0.256509
v 0.500000 0.365194 -0.013017
v 0.078273 0.365194 -0.256509
v 0.078273 0.365194 -0.743491
v 0.822049 0.419353 -0.685940
v 0.500000 0.419353 -0.871881
v 0.822049 0.419353 -0.314060
v 0.500000 0.419353 -0.128119
v 0.177951 0.419353 -0.314060
v 0.177951 0.419353 -0.685940
v 0.822049 0.306954 -0.685940
v 0.500000 0.306954 -0.871881
v 0.822049 0.306954 -0.314060
v 0.500000 0.306954 -0.128119
v 0.177951 0.306954 -0.314060
v 0.177951 0.306954 -0.685940
v 0.693818 0.199858 -0.616067
v 0.500000 0.199858 -0.727971
v 0.693818 0.199858 -0.392260
v 0.500000 0.199858 -0.280356
v 0.306182 0.199858 -0.392260
v 0.306182 0.199858 -0.616067
vt 0.494170 0.203384
vt 0.522264 0.140289
vt 0.633804 0.140289
vt 0.661898 0.203384
vt 0.459690 0.856355
vt 0.431596 0.919450
vt 0.320056 0.919450
vt 0.291962 0.856355
vt 0.599516 0.373636
vt 0.571422 0.436731
vt 0.459881 0.436731
vt 0.431788 0.373636
vt 0.827943 0.635084
vt 0.799850 0.698178
vt 0.688309 0.698178
vt 0.660215 0.635084
vt 0.660215 0.699105
vt 0.771756 0.699105
vt 0.771756 0.728462
vt 0.660215 0.728462
vt 0.685575 0.232883
vt 0.713669 0.169789
vt 0.825210 0.169789
vt 0.853303 0.232883
vt 0.799537 0.949093
vt 0.827631 0.885998
vt 0.939171 0.885998
vt 0.967265 0.949093
vt 0.291035 0.084378
vt 0.290977 0.252106
vt 0.145691 0.335920
vt 0.000463 0.252006
vt 0.000521 0.084277
vt 0.145807 0.000463
vt 0.362622 0.487598
vt 0.474162 0.487598
vt 0.544823 0.626497
vt 0.291962 0.626497
vt 0.884223 0.728462
vt 0.772683 0.728462
vt 0.772683 0.699105
vt 0.884223 0.699105
vt 0.543328 0.467014
vt 0.431788 0.467014
vt 0.431788 0.437657
vt 0.543328 0.437657
vt 0.769190 0.437657
vt 0.880730 0.437657
vt 0.880730 0.467014
vt 0.769190 0.467014
vt 0.655795 0.467014
vt 0.544255 0.467014
vt 0.544255 0.437657
vt 0.655795 0.437657
vt 0.656722 0.437657
vt 0.768263 0.437657
vt 0.768263 0.467014
vt 0.656722 0.467014
vt 0.798610 0.854924
vt 0.545750 0.854924
vt 0.545750 0.800290
vt 0.798610 0.800290
vt 0.291962 0.416011
vt 0.291962 0.304470
vt 0.430861 0.233810
vt 0.430861 0.486671
vt 0.613988 0.372709
vt 0.502448 0.372709
vt 0.431788 0.233810
vt 0.684648 0.233810
vt 0.071124 0.476672
vt 0.182664 0.476673
vt 0.253324 0.615571
vt 0.000463 0.615571
vt 0.071124 0.336847
vt 0.182664 0.336847
vt 0.253324 0.475746
vt 0.000463 0.475746
vt 0.684122 0.137812
vt 0.572581 0.137812
vt 0.501921 -0.001087
vt 0.754782 -0.001087
vt 0.544823 0.686328
vt 0.291962 0.686328
vt 0.321845 0.627424
vt 0.514940 0.627424
vt 0.000463 0.616498
vt 0.253324 0.616498
vt 0.253324 0.671132
vt 0.000463 0.671132
vt 0.659288 0.487598
vt 0.659288 0.740459
vt 0.604654 0.740459
vt 0.604654 0.487598
vt 0.544823 0.740962
vt 0.291962 0.740962
vt 0.291962 0.741889
vt 0.544823 0.741889
vt 0.544823 0.796523
vt 0.291962 0.796523
vt 0.000463 0.730964
vt 0.253324 0.730964
vt 0.253324 0.785598
vt 0.000463 0.785598
vt 0.941053 0.145577
vt 0.747958 0.145577
vt 0.747958 0.087215
vt 0.941053 0.087215
vt 0.514940 0.855428
vt 0.321845 0.855428
vt 0.223441 0.844503
vt 0.030346 0.844503
vt 0.575632 0.741386
vt 0.768728 0.741386
vt 0.223442 0.730037
vt 0.030346 0.730037
vt 0.545750 0.710576
vt 0.545750 0.517481
vt 0.992632 0.826709
vt 0.799537 0.826709
vt 0.839061 0.741386
vt 0.955271 0.741386
vt 0.660215 0.487598
vt 0.853310 0.487598
vt 0.853310 0.545960
vt 0.660215 0.545960
vt 0.738845 0.999537
vt 0.545750 0.999537
vt 0.545750 0.941174
vt 0.738845 0.941174
vt 0.992632 0.885071
vt 0.799537 0.885071
vt 0.685575 0.426905
vt 0.685575 0.233810
vt 0.743938 0.233810
vt 0.743938 0.426905
vt 0.000463 0.845430
vt 0.193558 0.845430
vt 0.193559 0.903792
vt 0.000463 0.903792
vt 0.493243 0.058568
vt 0.493243 0.174778
vt 0.392603 0.232883
vt 0.291962 0.174778
vt 0.291962 0.058568
vt 0.392603 0.000463
vt 0.832134 0.273334
vt 0.832134 0.389543
vt 0.157278 0.990543
vt 0.041068 0.990543
vt 0.788562 0.000463
vt 0.904772 0.000463
vt 0.815949 0.634157
vt 0.699739 0.634157
vt 0.583111 0.855851
vt 0.699321 0.855851
vn 0.318300 0.771200 -0.551300
vn 0.636600 0.771200 0.000000
vn 0.318300 0.771200 0.551300
vn -0.318300 0.771200 0.551300
vn 1.000000 0.000000 0.000000
vn -0.318300 0.771200 -0.551300
vn -0.636600 0.771200 0.000000
vn 0.000000 -1.000000 0.000000
vn 0.236400 -0.881100 0.409500
vn -1.000000 0.000000 0.000000
vn 0.500000 0.000000 -0.866000
vn 0.500000 0.000000 0.866000
vn -0.500000 0.000000 -0.866000
vn -0.500000 0.000000 0.866000
vn 0.236400 -0.881100 -0.409500
vn -0.236400 -0.881100 -0.409500
vn -0.236400 -0.881100 0.409500
vn 0.472900 -0.881100 0.000000
vn -0.472900 -0.881100 0.000000
vn -0.238700 0.878700 -0.413400
vn -0.238700 0.878700 0.413400
vn 0.477400 0.878700 0.000000
vn -0.477400 0.878700 0.000000
vn 0.238700 0.878700 0.413400
vn 0.238700 0.878700 -0.413400
vn 0.325900 0.758400 0.564400
vn 0.000000 1.000000 -0.000000
vn 0.315300 0.776200 -0.546000
vn -0.641000 0.767500 0.000000
vn 0.641000 0.767500 0.000000
vn -0.315300 0.776200 -0.546000
vn -0.325900 0.758400 0.564400
usemtl Material
s off
f 1/1/1 2/2/1 4/3/1 3/4/1
f 3/5/2 4/6/2 6/7/2 5/8/2
f 5/9/3 6/10/3 8/11/3 7/12/3
f 7/13/4 8/14/4 10/15/4 9/16/4
f 6/17/5 4/18/5 13/19/5 15/20/5
f 11/21/6 12/22/6 2/23/6 1/24/6
f 9/25/7 10/26/7 12/27/7 11/28/7
f 1/29/8 3/30/8 5/31/8 7/32/8 9/33/8 11/34/8
f 16/35/9 15/36/9 21/37/9 22/38/9
f 12/39/10 10/40/10 17/41/10 18/42/10
f 4/43/11 2/44/11 14/45/11 13/46/11
f 8/47/12 6/48/12 15/49/12 16/50/12
f 2/51/13 12/52/13 18/53/13 14/54/13
f 10/55/14 8/56/14 16/57/14 17/58/14
f 24/59/10 23/60/10 29/61/10 30/62/10
f 13/63/15 14/64/15 20/65/15 19/66/15
f 14/67/16 18/68/16 24/69/16 20/70/16
f 17/71/17 16/72/17 22/73/17 23/74/17
f 15/75/18 13/76/18 19/77/18 21/78/18
f 18/79/19 17/80/19 23/81/19 24/82/19
f 26/83/20 30/84/20 36/85/20 32/86/20
f 22/87/12 21/88/12 27/89/12 28/90/12
f 19/91/11 20/92/11 26/93/11 25/94/11
f 20/95/13 24/96/13 30/84/13 26/83/13
f 23/97/14 22/98/14 28/99/14 29/100/14
f 21/101/5 19/102/5 25/103/5 27/104/5
f 36/105/5 35/106/5 41/107/5 42/108/5
f 29/100/21 28/99/21 34/109/21 35/110/21
f 27/104/22 25/103/22 31/111/22 33/112/22
f 30/62/23 29/61/23 35/113/23 36/114/23
f 28/90/24 27/89/24 33/115/24 34/116/24
f 25/94/25 26/93/25 32/117/25 31/118/25
f 38/119/26 42/120/26 48/121/26 44/122/26
f 34/123/13 33/124/13 39/125/13 40/126/13
f 31/127/14 32/128/14 38/129/14 37/130/14
f 32/131/12 36/132/12 42/120/12 38/119/12
f 35/133/11 34/134/11 40/135/11 41/136/11
f 33/137/10 31/138/10 37/139/10 39/140/10
f 43/141/27 44/142/27 48/143/27 47/144/27 46/145/27 45/146/27
f 41/136/28 40/135/28 46/147/28 47/148/28
f 39/140/29 37/139/29 43/149/29 45/150/29
f 42/108/30 41/107/30 47/151/30 48/152/30
f 40/126/31 39/125/31 45/153/31 46/154/31
f 37/130/32 38/129/32 44/155/32 43/156/32
